<svg width="14" height="14" viewBox="0 0 14 14" fill="none" fill-opacity='0' xmlns="http://www.w3.org/2000/svg">
<path d="M10.2413 1.99133L11.366 0.865997C11.6005 0.631546 11.9184 0.499832 12.25 0.499832C12.5816 0.499832 12.8995 0.631546 13.134 0.865997C13.3685 1.10045 13.5002 1.41843 13.5002 1.75C13.5002 2.08156 13.3685 2.39955 13.134 2.634L6.05467 9.71333C5.70222 10.0656 5.26758 10.3245 4.79 10.4667L3 11L3.53333 9.21C3.67552 8.73242 3.93442 8.29778 4.28667 7.94533L10.2413 1.99133ZM10.2413 1.99133L12 3.75M11 8.33333V11.5C11 11.8978 10.842 12.2794 10.5607 12.5607C10.2794 12.842 9.89782 13 9.5 13H2.5C2.10218 13 1.72064 12.842 1.43934 12.5607C1.15804 12.2794 1 11.8978 1 11.5V4.5C1 4.10217 1.15804 3.72064 1.43934 3.43934C1.72064 3.15803 2.10218 3 2.5 3H5.66667" stroke="#9EBBFF" stroke-linecap="round" stroke-linejoin="round"/>
</svg>
