<svg width="12" height="14" viewBox="0 0 12 14" fill="none" xmlns="http://www.w3.org/2000/svg">
<path d="M7.82667 5L7.596 11M4.404 11L4.17333 5M10.8187 2.86C11.0467 2.89466 11.2733 2.93133 11.5 2.97066M10.8187 2.86L10.1067 12.1153C10.0776 12.4921 9.90738 12.8441 9.63001 13.1008C9.35265 13.3575 8.9886 13.5001 8.61067 13.5H3.38933C3.0114 13.5001 2.64735 13.3575 2.36999 13.1008C2.09262 12.8441 1.92239 12.4921 1.89333 12.1153L1.18133 2.86M10.8187 2.86C10.0492 2.74367 9.27584 2.65539 8.5 2.59533M1.18133 2.86C0.953333 2.894 0.726667 2.93066 0.5 2.97M1.18133 2.86C1.95076 2.74368 2.72416 2.6554 3.5 2.59533M8.5 2.59533V1.98466C8.5 1.198 7.89333 0.541997 7.10667 0.51733C6.36908 0.493755 5.63092 0.493755 4.89333 0.51733C4.10667 0.541997 3.5 1.19866 3.5 1.98466V2.59533M8.5 2.59533C6.83581 2.46672 5.16419 2.46672 3.5 2.59533" stroke="#EF5050" stroke-linecap="round" stroke-linejoin="round"/>
</svg>
