<svg width="12" height="14" viewBox="0 0 12 14" fill="none" xmlns="http://www.w3.org/2000/svg">
<path d="M7.5 5V2.5C7.5 2.10218 7.34196 1.72064 7.06066 1.43934C6.77936 1.15804 6.39782 1 6 1H2C1.60218 1 1.22064 1.15804 0.93934 1.43934C0.658035 1.72064 0.5 2.10218 0.5 2.5V11.5C0.5 11.8978 0.658035 12.2794 0.93934 12.5607C1.22064 12.842 1.60218 13 2 13H6C6.39782 13 6.77936 12.842 7.06066 12.5607C7.34196 12.2794 7.5 11.8978 7.5 11.5V9M9.5 9L11.5 7M11.5 7L9.5 5M11.5 7H3" stroke="#407BFF" stroke-linecap="round" stroke-linejoin="round"/>
</svg>
