<svg width="26" height="26" viewBox="0 0 26 26" fill="none" xmlns="http://www.w3.org/2000/svg">
<path d="M6 1V4M20 1V4M1 22V7C1 6.20435 1.31607 5.44129 1.87868 4.87868C2.44129 4.31607 3.20435 4 4 4H22C22.7957 4 23.5587 4.31607 24.1213 4.87868C24.6839 5.44129 25 6.20435 25 7V22M1 22C1 22.7957 1.31607 23.5587 1.87868 24.1213C2.44129 24.6839 3.20435 25 4 25H22C22.7957 25 23.5587 24.6839 24.1213 24.1213C24.6839 23.5587 25 22.7957 25 22M1 22V12C1 11.2044 1.31607 10.4413 1.87868 9.87868C2.44129 9.31607 3.20435 9 4 9H22C22.7957 9 23.5587 9.31607 24.1213 9.87868C24.6839 10.4413 25 11.2044 25 12V22M13 14H13.0107V14.0107H13V14ZM13 17H13.0107V17.0107H13V17ZM13 20H13.0107V20.0107H13V20ZM10 17H10.0107V17.0107H10V17ZM10 20H10.0107V20.0107H10V20ZM7 17H7.01067V17.0107H7V17ZM7 20H7.01067V20.0107H7V20ZM16 14H16.0107V14.0107H16V14ZM16 17H16.0107V17.0107H16V17ZM16 20H16.0107V20.0107H16V20ZM19 14H19.0107V14.0107H19V14ZM19 17H19.0107V17.0107H19V17Z" stroke="#407BFF" stroke-width="2" stroke-linecap="round" stroke-linejoin="round"/>
</svg>
