<svg width="12" height="7" viewBox="0 0 12 7" fill="none" xmlns="http://www.w3.org/2000/svg">
<path fill-rule="evenodd" clip-rule="evenodd" d="M6.35356 6.85335C6.25981 6.94699 6.13272 6.99958 6.00022 6.99958C5.86772 6.99958 5.74064 6.94699 5.64689 6.85335L0.64689 1.85335C0.55857 1.75857 0.510488 1.63321 0.512773 1.50367C0.515059 1.37414 0.567533 1.25055 0.659142 1.15894C0.750751 1.06733 0.874341 1.01486 1.00387 1.01257C1.13341 1.01029 1.25877 1.05837 1.35356 1.14669L6.00022 5.79335L10.6469 1.14669C10.6927 1.09756 10.7479 1.05816 10.8092 1.03083C10.8705 1.00351 10.9367 0.988811 11.0039 0.987627C11.071 0.986442 11.1377 0.998792 11.2 1.02394C11.2622 1.04909 11.3188 1.08652 11.3662 1.134C11.4137 1.18147 11.4512 1.23803 11.4763 1.30029C11.5015 1.36255 11.5138 1.42923 11.5126 1.49637C11.5114 1.5635 11.4967 1.62971 11.4694 1.69105C11.4421 1.75238 11.4027 1.80758 11.3536 1.85335L6.35356 6.85335Z" fill="#407BFF"/>
</svg>
