<svg width="280" height="210" viewBox="0 0 280 210" fill="none" xmlns="http://www.w3.org/2000/svg">
<g clip-path="url(#clip0_115_1272)">
<path d="M140 210C199.966 210 248.578 207.144 248.578 203.62C248.578 200.097 199.966 197.24 140 197.24C80.0338 197.24 31.4216 200.097 31.4216 203.62C31.4216 207.144 80.0338 210 140 210Z" fill="#F5F5F5"/>
<path opacity="0.1" d="M76.888 159.079C76.9552 158.572 77.2134 158.109 77.6093 157.787C78.0052 157.466 78.5087 157.309 79.016 157.349C83.8096 157.276 88.2952 160.686 92.456 164.343C93.38 165.149 94.3824 165.983 95.4184 165.138C95.7389 164.871 95.9729 164.514 96.0904 164.112C96.2696 163.456 96.2696 162.763 96.0904 162.106C95.9363 161.564 95.6796 161.057 95.3344 160.612C93.5256 158.217 91.3248 157.067 89.5384 154.593C88.5378 153.176 87.7087 151.643 87.0688 150.028C86.5088 148.608 85.3888 146.314 85.8368 144.392C86.3352 142.093 88.0432 142.29 89.0792 142.606C92.3552 143.592 95.4128 145.942 98.1904 148.867C101.153 151.978 103.835 155.726 106.506 159.451C107.514 160.866 108.578 162.32 109.866 162.833C111.154 163.346 112.784 162.517 113.327 160.477C113.87 158.437 113.232 156.092 113.098 154.063C112.918 151.642 113.034 149.208 113.445 146.816C113.627 145.551 114.051 144.334 114.694 143.231C116.138 141.101 118.278 141.85 119.678 143.462C120.746 144.811 121.573 146.337 122.119 147.971C123.69 152.487 124.632 157.2 124.919 161.976C125.132 164.935 125.58 168.018 126.79 170.312C128.744 174.02 132.39 173.727 135.218 171.783C140.14 168.401 143.937 160.759 144.95 152.215C145.281 149.431 145.365 146.421 146.373 144.088C147.252 142.07 149.509 140.706 150.612 142.882C151.056 143.97 151.181 145.163 150.97 146.32C150.773 147.466 150.494 148.596 150.136 149.701C149.576 151.618 149.016 155.208 150.528 156.329C150.753 156.467 151.006 156.554 151.268 156.583C151.53 156.612 151.796 156.583 152.046 156.498C156.996 155.461 161.599 150.772 164.623 144.229C165.719 141.766 166.556 139.196 167.121 136.558C167.485 134.946 167.636 133.216 168.039 131.616C168.298 130.356 168.821 129.166 169.574 128.127C171.5 125.805 175.946 126.898 176.198 131.875C176.35 134.755 175.588 137.573 175.308 140.391C175.134 142.149 176.215 142.138 177.022 142.082C180.886 141.687 184.302 137.764 187.331 133.684C190.932 128.831 194.919 122.531 199.836 122.345C200.956 122.305 202.821 122.452 203.493 124.193C203.804 125.26 203.804 126.395 203.493 127.462C202.496 131.621 199.573 133.769 197.333 135.826C191.017 141.787 185.463 148.515 180.796 155.856C180.085 156.983 179.351 158.843 180.029 159.947C180.159 160.158 180.348 160.324 180.573 160.424C180.797 160.525 181.047 160.555 181.289 160.511C183.602 160.331 185.769 158.482 187.88 156.949C189.991 155.416 192.388 154.075 194.6 155.23C195.282 155.642 195.876 156.186 196.348 156.83C196.82 157.474 197.16 158.206 197.35 158.984C197.745 160.346 197.808 161.784 197.534 163.177C196.722 167.004 193.211 168.723 191.279 170.611C188.619 173.193 186.183 176.001 183.999 179.002C181.983 181.781 180.079 184.824 178.063 187.552C170.783 197.319 160.703 198.768 151.743 199.9C141.994 201.129 132.222 200.464 122.528 199.173C115.478 198.227 108.528 196.209 101.646 193.814C99.2824 192.951 96.936 192.01 94.6176 190.894C92.1256 189.699 88.4576 188.961 87.5 184.255C87.2984 183.241 87.5336 182.418 88.2 182.04C90.2664 180.857 93.212 182.44 95.1552 183.483C97.8376 184.926 100.38 186.983 103.135 188.093C103.578 188.312 104.061 188.439 104.553 188.465C105.046 188.491 105.539 188.416 106.002 188.245C106.457 188.053 106.831 187.709 107.061 187.27C107.354 186.699 107.426 186.038 107.262 185.416C107.149 185.08 106.957 184.777 106.702 184.531C101.743 179.416 95.818 175.35 89.2752 172.572C87.1752 171.664 85.0304 170.921 83.0088 169.636C81.3748 168.618 79.9645 167.276 78.8648 165.69C77.924 164.174 76.412 161.497 76.888 159.079Z" fill="#407BFF"/>
<path opacity="0.1" d="M183.999 117.65C183.625 118.04 183.135 118.297 182.602 118.382C182.07 118.467 181.525 118.375 181.049 118.12C180.574 117.865 180.193 117.462 179.966 116.97C179.738 116.479 179.676 115.926 179.788 115.395C181.72 105.955 185.92 99.0907 190.915 102.653C194.645 105.307 188.798 112.628 183.999 117.65Z" fill="#407BFF"/>
<path opacity="0.3" d="M170.447 122.057C171.975 121.208 173.27 119.992 174.217 118.517C175.164 117.042 175.733 115.354 175.874 113.603L179.659 67.1914C179.856 64.8057 179.554 62.4049 178.774 60.1435C177.994 57.882 176.752 55.8097 175.129 54.0597L163.464 41.486C162.822 40.7907 162.331 39.9688 162.022 39.0723C161.712 38.1758 161.591 37.2244 161.667 36.2784L162.227 29.4815L132.037 26.9848L131.477 33.7817C131.4 34.7274 131.127 35.6464 130.677 36.48C130.227 37.3136 129.608 38.0435 128.862 38.623L115.31 49.1227C113.426 50.5839 111.866 52.425 110.73 54.5281C109.594 56.6312 108.907 58.9499 108.713 61.3357L104.922 107.747C104.778 109.496 105.067 111.252 105.762 112.861C106.456 114.47 107.536 115.881 108.903 116.968C107.376 117.816 106.081 119.032 105.135 120.508C104.189 121.983 103.621 123.671 103.483 125.422L98.6497 184.599C98.422 187.412 99.3133 190.202 101.128 192.354C102.942 194.507 105.531 195.847 108.327 196.079L158.167 200.199C159.551 200.314 160.944 200.154 162.266 199.727C163.588 199.3 164.814 198.615 165.874 197.711C166.933 196.807 167.805 195.702 168.44 194.459C169.075 193.216 169.46 191.859 169.574 190.466L174.407 131.289C174.554 129.541 174.27 127.783 173.579 126.172C172.889 124.562 171.813 123.148 170.447 122.057Z" fill="#407BFF"/>
<path opacity="0.3" d="M132.045 26.9951L131.617 32.2358L161.8 34.7332L162.228 29.4925L132.045 26.9951Z" fill="#407BFF"/>
<path opacity="0.3" d="M174.849 55.2715L163.184 42.6865C163.184 42.6865 155.663 43.0133 161.504 52.2957C166.482 60.1465 175.157 58.9235 174.849 55.2715Z" fill="white"/>
<path opacity="0.2" d="M98.6554 184.576C98.4277 187.39 99.3189 190.179 101.133 192.332C102.948 194.484 105.537 195.824 108.332 196.057L158.172 200.177C159.556 200.292 160.949 200.131 162.272 199.704C163.594 199.277 164.82 198.592 165.879 197.688C166.939 196.784 167.811 195.679 168.445 194.436C169.08 193.193 169.466 191.836 169.579 190.443L98.6554 184.576Z" fill="#407BFF"/>
<path opacity="0.3" d="M172.67 56.3592C173.973 57.765 174.97 59.4291 175.596 61.2449C176.223 63.0607 176.466 64.9882 176.31 66.904L172.525 113.321C172.426 114.515 172.036 115.665 171.39 116.67C170.743 117.675 169.859 118.503 168.818 119.081L164.41 121.539L168.358 124.689C169.292 125.43 170.03 126.392 170.505 127.49C170.98 128.587 171.177 129.786 171.08 130.979L166.247 190.156C166.092 192.074 165.186 193.851 163.73 195.098C162.274 196.345 160.386 196.959 158.48 196.806L108.64 192.686C107.694 192.611 106.771 192.349 105.925 191.914C105.08 191.48 104.327 190.882 103.711 190.156C103.095 189.429 102.627 188.587 102.334 187.678C102.041 186.769 101.929 185.811 102.004 184.858L106.837 125.681C106.933 124.487 107.322 123.336 107.968 122.33C108.614 121.324 109.497 120.495 110.538 119.915L114.946 117.458L111.026 114.308C110.092 113.567 109.354 112.605 108.879 111.507C108.404 110.41 108.207 109.211 108.304 108.018L112.095 61.6062C112.252 59.6902 112.805 57.8284 113.719 56.1397C114.632 54.4511 115.885 52.9729 117.398 51.7997C121.878 48.886 133.638 56.1394 147.409 57.2779C161.179 58.4163 169.792 54.8995 172.67 56.3592Z" fill="#407BFF"/>
<path opacity="0.2" d="M147.381 57.2835C133.616 56.1563 121.845 48.886 117.365 51.7997C125.205 56.1394 134.165 58.8277 147.162 59.9042C160.16 60.9807 172.67 56.3592 172.67 56.3592C169.792 54.8995 161.146 58.4276 147.381 57.2835Z" fill="#407BFF"/>
<path opacity="0.2" d="M104.927 107.748C104.784 109.496 105.072 111.252 105.767 112.861C106.462 114.47 107.541 115.881 108.909 116.968L170.447 122.04C171.975 121.192 173.27 119.975 174.217 118.5C175.164 117.025 175.733 115.337 175.874 113.586L104.927 107.748Z" fill="#407BFF"/>
<path d="M162.859 21.1805L132.761 18.6824C131.5 18.5778 130.394 19.5215 130.291 20.7903L129.691 28.1599C129.587 29.4288 130.526 30.5422 131.786 30.6468L161.885 33.1449C163.146 33.2496 164.251 32.3058 164.355 31.037L164.955 23.6674C165.058 22.3986 164.12 21.2852 162.859 21.1805Z" fill="#407BFF"/>
<path opacity="0.2" d="M133.314 29.5097C133.277 29.5068 133.241 29.4967 133.208 29.4798C133.175 29.463 133.146 29.4397 133.122 29.4114C133.098 29.3832 133.08 29.3504 133.069 29.315C133.057 29.2796 133.053 29.2424 133.056 29.2053L133.762 20.2893C133.768 20.2146 133.803 20.1453 133.859 20.0967C133.916 20.048 133.99 20.0241 134.064 20.0301C134.138 20.036 134.207 20.0715 134.255 20.1285C134.304 20.1856 134.328 20.2597 134.322 20.3344L133.594 29.2448C133.589 29.3166 133.558 29.384 133.506 29.4332C133.454 29.4825 133.385 29.5098 133.314 29.5097Z" fill="white"/>
<path opacity="0.2" d="M138.774 29.9606C138.737 29.9577 138.701 29.9476 138.668 29.9307C138.635 29.9138 138.606 29.8906 138.582 29.8623C138.558 29.834 138.54 29.8013 138.528 29.7659C138.517 29.7305 138.513 29.6932 138.516 29.6562L139.244 20.7458C139.251 20.6716 139.287 20.603 139.343 20.5546C139.4 20.5062 139.472 20.4818 139.546 20.4866C139.583 20.4894 139.619 20.4996 139.651 20.5165C139.684 20.5334 139.713 20.5568 139.736 20.5851C139.76 20.6135 139.777 20.6463 139.788 20.6817C139.799 20.717 139.802 20.7542 139.798 20.7909L139.054 29.7013C139.047 29.7716 139.014 29.8369 138.963 29.8847C138.911 29.9325 138.844 29.9595 138.774 29.9606Z" fill="white"/>
<path opacity="0.2" d="M144.228 30.434C144.191 30.4311 144.155 30.421 144.122 30.4041C144.09 30.3873 144.06 30.364 144.036 30.3357C144.012 30.3074 143.994 30.2747 143.983 30.2393C143.972 30.2039 143.967 30.1667 143.97 30.1296L144.698 21.2192C144.707 21.1455 144.743 21.0778 144.799 21.0297C144.855 20.9815 144.927 20.9566 145.001 20.96C145.038 20.9628 145.074 20.973 145.106 20.9898C145.139 21.0067 145.169 21.0299 145.193 21.0582C145.216 21.0865 145.235 21.1193 145.246 21.1547C145.257 21.19 145.261 21.2273 145.258 21.2643L144.53 30.1747C144.528 30.2118 144.518 30.2479 144.501 30.281C144.484 30.3141 144.461 30.3436 144.433 30.3677C144.405 30.3918 144.372 30.41 144.337 30.4214C144.302 30.4328 144.265 30.4371 144.228 30.434Z" fill="white"/>
<path opacity="0.2" d="M149.688 30.8623C149.651 30.8595 149.615 30.8493 149.582 30.8324C149.55 30.8156 149.52 30.7923 149.496 30.7641C149.472 30.7358 149.454 30.703 149.443 30.6676C149.432 30.6323 149.427 30.595 149.43 30.558L150.158 21.6476C150.166 21.5733 150.201 21.5047 150.257 21.4564C150.314 21.408 150.387 21.3836 150.461 21.3883C150.497 21.3911 150.533 21.4013 150.566 21.4182C150.598 21.4352 150.627 21.4585 150.651 21.4869C150.674 21.5153 150.692 21.5481 150.702 21.5834C150.713 21.6188 150.717 21.6559 150.713 21.6927L149.985 30.603C149.983 30.6398 149.973 30.6758 149.957 30.7089C149.941 30.742 149.918 30.7715 149.891 30.7957C149.863 30.8198 149.831 30.8382 149.796 30.8496C149.761 30.8611 149.725 30.8654 149.688 30.8623Z" fill="white"/>
<path opacity="0.2" d="M155.12 31.3132C155.083 31.3103 155.047 31.3002 155.014 31.2833C154.982 31.2665 154.952 31.2432 154.928 31.2149C154.904 31.1867 154.886 31.1539 154.875 31.1185C154.864 31.0831 154.859 31.0459 154.862 31.0088L155.59 22.0984C155.6 22.0253 155.636 21.9583 155.692 21.9104C155.748 21.8625 155.819 21.8372 155.893 21.8392C155.93 21.842 155.966 21.8522 155.998 21.869C156.031 21.8859 156.061 21.9091 156.085 21.9374C156.108 21.9657 156.127 21.9985 156.138 22.0339C156.149 22.0692 156.153 22.1065 156.15 22.1435L155.422 31.0539C155.42 31.0912 155.411 31.1278 155.394 31.1612C155.378 31.1947 155.355 31.2245 155.326 31.2487C155.298 31.273 155.265 31.2912 155.23 31.3023C155.194 31.3133 155.157 31.317 155.12 31.3132Z" fill="white"/>
<path opacity="0.2" d="M160.602 31.764C160.566 31.7612 160.53 31.7511 160.497 31.7342C160.464 31.7173 160.435 31.6941 160.411 31.6658C160.387 31.6375 160.369 31.6048 160.357 31.5694C160.346 31.534 160.342 31.4967 160.345 31.4597L161.05 22.5437C161.058 22.4694 161.093 22.4009 161.149 22.3525C161.206 22.3041 161.279 22.2797 161.353 22.2844C161.426 22.2916 161.494 22.3275 161.541 22.3845C161.588 22.4415 161.611 22.5149 161.605 22.5888L160.882 31.5048C160.876 31.5751 160.843 31.6404 160.792 31.6882C160.74 31.736 160.673 31.763 160.602 31.764Z" fill="white"/>
<path opacity="0.2" d="M114.24 92.2431C113.389 87.5033 106.529 87.8414 106.137 92.6376L104.905 107.748C104.761 109.496 105.05 111.252 105.745 112.861C106.439 114.47 107.519 115.881 108.886 116.968C107.359 117.816 106.064 119.032 105.118 120.508C104.172 121.983 103.604 123.671 103.466 125.422L98.6328 184.599C98.4051 187.412 99.2963 190.202 101.111 192.354C102.925 194.507 105.514 195.847 108.31 196.079L121.19 197.144C122.609 197.261 124.035 197.048 125.36 196.522C126.684 195.996 127.87 195.171 128.827 194.109C129.784 193.048 130.486 191.78 130.878 190.403C131.271 189.026 131.343 187.576 131.09 186.166L114.24 92.2431Z" fill="#407BFF"/>
<path opacity="0.3" d="M163.8 169.731C163.711 170.818 163.304 171.853 162.631 172.707C161.957 173.56 161.047 174.194 160.016 174.527C158.985 174.86 157.879 174.878 156.837 174.579C155.796 174.279 154.866 173.676 154.165 172.845C153.465 172.014 153.025 170.992 152.901 169.909C152.777 168.826 152.975 167.731 153.47 166.761C153.965 165.791 154.734 164.991 155.68 164.462C156.627 163.932 157.709 163.697 158.788 163.785C160.236 163.906 161.577 164.6 162.516 165.715C163.456 166.83 163.918 168.274 163.8 169.731Z" fill="#407BFF"/>
<path opacity="0.3" d="M146.39 148.388C146.327 149.157 146.04 149.89 145.563 150.494C145.087 151.099 144.443 151.547 143.713 151.784C142.984 152.02 142.201 152.033 141.464 151.821C140.727 151.609 140.068 151.182 139.572 150.594C139.077 150.006 138.765 149.283 138.677 148.516C138.59 147.75 138.73 146.975 139.08 146.288C139.431 145.602 139.975 145.036 140.645 144.661C141.315 144.287 142.081 144.121 142.845 144.184C143.868 144.27 144.816 144.761 145.48 145.549C146.145 146.337 146.472 147.358 146.39 148.388Z" fill="#407BFF"/>
<path opacity="0.3" d="M130.189 100.883C129.424 100.919 128.665 100.726 128.009 100.328C127.353 99.9298 126.828 99.3452 126.502 98.6475C126.176 97.9499 126.063 97.1707 126.176 96.4082C126.29 95.6458 126.626 94.9344 127.141 94.3639C127.656 93.7933 128.328 93.3893 129.071 93.2029C129.815 93.0164 130.596 93.0558 131.317 93.3162C132.038 93.5766 132.667 94.0462 133.123 94.6657C133.579 95.2852 133.842 96.0269 133.879 96.7969C133.904 97.3092 133.828 97.8214 133.656 98.3042C133.484 98.787 133.219 99.2308 132.876 99.6104C132.533 99.9899 132.12 100.298 131.658 100.516C131.197 100.734 130.698 100.859 130.189 100.883Z" fill="#407BFF"/>
<path opacity="0.3" d="M140.756 77.5672C140.214 77.5945 139.675 77.4591 139.209 77.1783C138.743 76.8975 138.371 76.4838 138.138 75.9896C137.906 75.4954 137.825 74.943 137.905 74.4023C137.985 73.8616 138.222 73.357 138.588 72.9524C138.953 72.5477 139.429 72.2612 139.956 72.1292C140.483 71.9971 141.037 72.0255 141.548 72.2107C142.06 72.3958 142.504 72.7295 142.827 73.1694C143.149 73.6092 143.335 74.1355 143.36 74.6816C143.394 75.4114 143.138 76.1248 142.65 76.6657C142.162 77.2065 141.481 77.5307 140.756 77.5672Z" fill="#407BFF"/>
<path opacity="0.3" d="M157.758 131.531C157.731 131.848 157.612 132.151 157.415 132.4C157.217 132.649 156.951 132.834 156.65 132.931C156.348 133.028 156.025 133.033 155.721 132.946C155.416 132.858 155.145 132.681 154.94 132.438C154.735 132.195 154.607 131.897 154.571 131.58C154.534 131.264 154.592 130.944 154.737 130.66C154.881 130.377 155.106 130.143 155.382 129.988C155.659 129.833 155.975 129.764 156.29 129.79C156.714 129.825 157.106 130.029 157.381 130.355C157.656 130.682 157.792 131.104 157.758 131.531Z" fill="#407BFF"/>
<path opacity="0.7" d="M128.75 175.627H128.481C128.052 175.597 127.633 175.482 127.249 175.289C126.864 175.095 126.522 174.827 126.241 174.499C125.965 174.173 125.755 173.795 125.626 173.387C125.496 172.978 125.448 172.548 125.485 172.121C125.537 171.49 125.771 170.887 126.157 170.387C126.544 169.887 127.067 169.511 127.663 169.305C128.258 169.099 128.9 169.073 129.511 169.228C130.121 169.383 130.673 169.714 131.1 170.18C131.527 170.646 131.81 171.226 131.914 171.851C132.018 172.476 131.939 173.118 131.687 173.699C131.435 174.279 131.02 174.773 130.493 175.121C129.967 175.468 129.351 175.654 128.722 175.655L128.75 175.627ZM128.75 169.517C128.113 169.52 127.496 169.742 127.001 170.145C126.506 170.549 126.163 171.11 126.027 171.737C125.892 172.363 125.973 173.017 126.257 173.591C126.541 174.165 127.01 174.624 127.588 174.893C128.167 175.162 128.819 175.225 129.437 175.07C130.055 174.916 130.603 174.555 130.989 174.045C131.376 173.536 131.578 172.909 131.563 172.268C131.548 171.627 131.316 171.011 130.906 170.52C130.667 170.235 130.374 170.001 130.044 169.831C129.714 169.66 129.354 169.558 128.985 169.528L128.75 169.517Z" fill="white"/>
<path opacity="0.7" d="M163.386 109.675H163.19C162.568 109.623 161.991 109.325 161.587 108.847C161.183 108.368 160.984 107.748 161.034 107.122C161.085 106.495 161.382 105.914 161.858 105.507C162.335 105.1 162.953 104.901 163.576 104.952C164.198 105.004 164.774 105.302 165.178 105.78C165.582 106.259 165.782 106.879 165.732 107.505C165.679 108.132 165.383 108.713 164.909 109.123C164.482 109.483 163.942 109.679 163.386 109.675ZM161.454 107.144C161.426 107.528 161.511 107.911 161.699 108.245C161.886 108.58 162.168 108.851 162.509 109.025C162.849 109.199 163.233 109.268 163.612 109.223C163.991 109.179 164.349 109.022 164.64 108.773C164.834 108.608 164.994 108.405 165.111 108.177C165.227 107.949 165.298 107.7 165.319 107.445C165.339 107.189 165.31 106.932 165.232 106.688C165.154 106.444 165.029 106.218 164.864 106.023C164.693 105.833 164.486 105.679 164.255 105.571C164.024 105.463 163.774 105.402 163.52 105.392C163.267 105.37 163.011 105.399 162.769 105.477C162.527 105.555 162.302 105.68 162.108 105.846C161.914 106.011 161.754 106.213 161.638 106.441C161.522 106.669 161.452 106.918 161.431 107.173L161.454 107.144Z" fill="white"/>
<path opacity="0.7" d="M127.204 59.7067H127.12C126.831 59.6781 126.564 59.5375 126.376 59.3146C126.188 59.0916 126.093 58.8039 126.112 58.512C126.126 58.2928 126.204 58.0825 126.335 57.9071C126.466 57.7316 126.646 57.5986 126.851 57.5244C127.057 57.4502 127.279 57.4381 127.492 57.4895C127.704 57.5409 127.897 57.6536 128.046 57.8138C128.196 57.974 128.295 58.1746 128.333 58.391C128.371 58.6074 128.344 58.8301 128.258 59.0318C128.171 59.2336 128.028 59.4054 127.846 59.5263C127.664 59.6472 127.45 59.7119 127.232 59.7124L127.204 59.7067ZM126.526 58.5458C126.516 58.6801 126.545 58.8145 126.61 58.9321C126.675 59.0496 126.774 59.1452 126.893 59.2066C127.012 59.268 127.147 59.2925 127.279 59.2771C127.412 59.2617 127.538 59.207 127.64 59.1199C127.742 59.0329 127.816 58.9173 127.853 58.7879C127.89 58.6585 127.888 58.5209 127.847 58.3926C127.807 58.2643 127.729 58.151 127.625 58.0669C127.52 57.9829 127.393 57.9319 127.26 57.9203C127.171 57.9118 127.081 57.9214 126.995 57.9484C126.91 57.9754 126.831 58.0193 126.762 58.0776C126.694 58.1359 126.638 58.2073 126.597 58.2878C126.557 58.3682 126.533 58.4559 126.526 58.5458Z" fill="white"/>
<path opacity="0.7" d="M151.967 88.8954H151.732C151.363 88.8663 151.004 88.7639 150.675 88.5943C150.346 88.4247 150.053 88.1912 149.814 87.9072C149.575 87.6232 149.395 87.2943 149.283 86.9396C149.171 86.585 149.129 86.2114 149.162 85.8407C149.209 85.2965 149.413 84.778 149.749 84.3484C150.084 83.9187 150.536 83.5964 151.05 83.4206C151.564 83.2448 152.117 83.2232 152.643 83.3583C153.169 83.4935 153.645 83.7796 154.012 84.1818C154.38 84.584 154.623 85.085 154.712 85.6238C154.802 86.1626 154.734 86.716 154.517 87.2167C154.299 87.7173 153.942 88.1436 153.489 88.4436C153.035 88.7436 152.504 88.9045 151.962 88.9066L151.967 88.8954ZM151.967 83.654C151.404 83.6515 150.858 83.8513 150.427 84.2175C149.944 84.6292 149.642 85.2169 149.587 85.852C149.556 86.246 149.621 86.6418 149.778 87.0044C149.934 87.367 150.177 87.6852 150.485 87.9309C150.792 88.1765 151.156 88.3421 151.542 88.413C151.929 88.4838 152.326 88.4578 152.7 88.3371C153.075 88.2165 153.413 88.005 153.687 87.7212C153.96 87.4375 154.16 87.0903 154.269 86.7104C154.377 86.3304 154.391 85.9294 154.309 85.5428C154.227 85.1562 154.052 84.7959 153.798 84.4937C153.596 84.2519 153.347 84.0532 153.067 83.909C152.788 83.7648 152.482 83.6781 152.169 83.654H151.967Z" fill="white"/>
<path opacity="0.3" d="M174.938 113.536L178.556 69.2767C178.579 68.994 178.546 68.7094 178.46 68.4394C178.374 68.1693 178.235 67.919 178.053 67.7028C177.87 67.4866 177.647 67.3088 177.396 67.1795C177.145 67.0501 176.871 66.9719 176.59 66.9491C176.31 66.9252 176.027 66.9573 175.759 67.0436C175.491 67.1298 175.242 67.2686 175.027 67.4519C174.812 67.6352 174.635 67.8593 174.507 68.1116C174.378 68.3638 174.3 68.6391 174.278 68.9217L170.66 113.181C170.542 114.652 170.064 116.071 169.267 117.31C168.471 118.549 167.381 119.57 166.096 120.282L163.895 121.516L165.872 123.088C167.024 124.002 167.934 125.188 168.52 126.541C169.106 127.894 169.351 129.372 169.232 130.844L164.399 190.021C164.108 193.571 161.89 195.302 158.771 196.682C158.573 196.772 158.41 196.924 158.308 197.117C158.206 197.309 158.17 197.53 158.206 197.745C158.241 197.961 158.347 198.158 158.506 198.306C158.665 198.454 158.869 198.545 159.085 198.565C161.436 198.758 163.767 198.004 165.565 196.469C167.364 194.933 168.484 192.742 168.678 190.376L173.51 131.199C173.63 129.727 173.386 128.249 172.8 126.896C172.213 125.542 171.303 124.356 170.15 123.444L168.174 121.865L170.374 120.637C171.658 119.924 172.747 118.903 173.544 117.664C174.34 116.425 174.819 115.006 174.938 113.536Z" fill="white"/>
<path opacity="0.3" d="M233.066 182.316C232.462 179.555 224.913 181.189 223.35 181.443C220.315 181.997 217.343 182.86 214.48 184.018C211.327 185.264 207.665 187.096 204.4 185.202C202.513 184.109 209.065 181.95 209.658 181.73C212.443 180.746 215.131 179.504 217.689 178.022C218.725 177.402 220.73 175.92 219.867 174.415C219.15 173.169 216.58 173.288 215.018 173.479C210.283 174.063 205.639 175.235 201.191 176.968C196.865 178.697 192.63 180.648 188.502 182.812C186.902 183.72 185.163 184.351 183.355 184.678C181.384 184.96 178.97 184.537 178.192 183.438C177.414 182.339 178.416 181.054 178.646 179.949C178.97 178.629 178.834 177.236 178.259 176.004C177.878 175.179 177.239 174.502 176.439 174.077C174.306 172.949 171.08 173.367 168.935 174.257C167.545 174.849 166.275 175.694 165.189 176.748C163 178.798 161.464 181.456 160.776 184.385C160.603 185.302 160.251 186.176 159.742 186.956C159.233 187.737 158.576 188.408 157.808 188.933C154.806 190.968 149.307 190.849 145.102 189.829C137.76 188.076 132.16 183.979 130.81 179.352C130.155 177.148 129.836 174.843 126.89 173.981C124.986 173.417 120.999 173.812 121.85 176.235C122.159 176.899 122.563 177.515 123.049 178.061C123.827 179.093 124.656 181.037 122.343 181.663C121.594 181.823 120.825 181.861 120.064 181.775C112.627 181.274 105.784 178.777 101.349 175.26C99.9026 174.117 98.6766 172.717 97.7312 171.129C97.2048 170.256 97.0144 169.314 96.4376 168.452C95.8865 167.622 95.1085 166.97 94.1976 166.575C91.3416 165.341 84.6328 165.983 84.1624 168.689C83.9104 170.154 84.8176 171.743 85.2824 173.135C85.3658 173.311 85.3856 173.51 85.3384 173.699C85.204 174.054 84.672 174.156 84.2184 174.184C78.2208 174.584 72.4024 172.239 67.368 169.793C62.0368 167.201 56.168 163.825 48.7592 163.785C47.2272 163.715 45.694 163.892 44.2176 164.31C43.8438 164.41 43.4961 164.591 43.1984 164.839C43.0174 165.029 42.8971 165.269 42.8532 165.528C42.8092 165.788 42.8437 166.054 42.952 166.293C43.1925 166.79 43.5501 167.219 43.9936 167.545C46.2336 169.382 49.3696 170.126 52.2312 171.073C60.7215 173.842 68.9307 177.418 76.748 181.753C77.5376 182.198 78.9376 183.229 77.8288 184.007C76.72 184.785 74.4688 184.283 73.1416 184.064C70.7336 183.669 68.4208 183.038 66.0744 182.446C62.972 181.657 59.3544 180.941 55.9944 181.595C54.2192 181.939 52.6344 182.671 51.8 183.663C51.5124 183.954 51.3231 184.328 51.2587 184.732C51.1944 185.137 51.2584 185.552 51.4416 185.918C52.5952 187.986 57.8536 188.877 60.7264 189.863C64.4047 191.126 68.0012 192.619 71.4952 194.332C74.48 195.82 77.252 197.449 80.276 198.909C91.0784 204.122 106.165 204.792 119.655 205.3C134.299 205.863 149.01 205.384 163.615 204.567C174.255 203.97 184.699 202.792 195.126 201.405C198.122 201.011 201.102 200.526 204.086 200.115C207.116 199.765 210.113 199.168 213.046 198.328C214.1 198.057 215.084 197.562 215.93 196.874C216.731 196.124 216.983 195.144 215.55 194.862C212.548 194.259 209.457 194.946 206.522 195.482C203.23 196.091 199.967 196.791 196.734 197.584C195.26 197.98 193.764 198.286 192.254 198.503C190.736 198.717 189.19 198.618 187.712 198.21C187.23 198.057 186.704 197.787 186.676 197.359C186.648 196.93 187.051 196.66 187.466 196.496C193.508 194.084 199.926 192.551 206.388 191.142C210.773 190.184 215.236 189.598 219.654 188.848C223.681 188.166 227.926 188.009 231.414 185.439C232.109 184.988 232.648 184.332 232.96 183.562C233.111 183.165 233.148 182.733 233.066 182.316Z" fill="#407BFF"/>
<path opacity="0.3" d="M59.78 159.497C58.1392 154.802 52.2928 146.489 51.0608 151.398C50.4 154.154 59.78 159.497 59.78 159.497Z" fill="#407BFF"/>
<path opacity="0.3" d="M206.601 168.739C209.726 165.871 213.623 164.163 214.127 166.688C214.598 169.077 206.601 168.739 206.601 168.739Z" fill="#407BFF"/>
<path opacity="0.3" d="M78.4 145.925C76.2608 144.798 74.592 142.989 75.8464 142.234C77.1008 141.479 78.4 145.925 78.4 145.925Z" fill="#407BFF"/>
</g>
<defs>
<clipPath id="clip0_115_1272">
<rect width="280" height="210" fill="white"/>
</clipPath>
</defs>
</svg>
