<svg width="320" height="572" viewBox="0 0 320 572" fill="none" xmlns="http://www.w3.org/2000/svg">
<path opacity="0.7" d="M302.481 49.784H300.409C297.103 49.5569 293.875 48.6769 290.911 47.1946C287.947 45.7124 285.306 43.6574 283.14 41.1484C281.01 38.649 279.398 35.7511 278.398 32.623C277.397 29.495 277.028 26.1992 277.312 22.9274C277.715 18.0897 279.516 13.4738 282.498 9.64325C285.479 5.81266 289.511 2.93312 294.102 1.35606C298.692 -0.221009 303.643 -0.427301 308.348 0.762309C313.054 1.95192 317.312 4.48597 320.601 8.05517C323.891 11.6244 326.071 16.0742 326.874 20.8616C327.678 25.649 327.07 30.5669 325.126 35.0148C323.182 39.4626 319.985 43.2481 315.925 45.9091C311.866 48.5701 307.119 49.9917 302.266 50L302.481 49.784ZM302.481 2.97918C297.571 3.00356 292.816 4.70145 289.001 7.79256C285.186 10.8837 282.538 15.1833 281.495 19.9819C280.452 24.7806 281.076 29.7915 283.264 34.1878C285.452 38.584 289.073 42.103 293.53 44.1638C297.987 46.2247 303.013 46.7042 307.779 45.5234C312.545 44.3427 316.766 41.5721 319.746 37.669C322.725 33.7658 324.285 28.9633 324.168 24.054C324.052 19.1446 322.265 14.4217 319.103 10.6648C317.26 8.4811 315.002 6.68489 312.46 5.3804C309.918 4.07591 307.143 3.28905 304.295 3.06549L302.481 2.97918Z" fill="#C6D7FF"/>
<path d="M289.201 264.669C289.006 267.034 288.115 269.288 286.639 271.146C285.163 273.005 283.169 274.384 280.91 275.109C278.65 275.835 276.226 275.874 273.944 275.222C271.663 274.57 269.625 273.256 268.09 271.447C266.555 269.637 265.591 267.413 265.319 265.055C265.048 262.698 265.482 260.313 266.566 258.202C267.65 256.091 269.336 254.349 271.41 253.196C273.484 252.043 275.854 251.53 278.219 251.724C281.391 251.986 284.329 253.497 286.388 255.924C288.447 258.351 289.459 261.496 289.201 264.669Z" fill="#C6D7FF"/>
<path d="M36.7947 52.4051C36.5999 54.7702 35.7083 57.0244 34.2325 58.8828C32.7567 60.7412 30.763 62.1203 28.5034 62.8458C26.2439 63.5713 23.8199 63.6106 21.538 62.9587C19.2562 62.3068 17.2188 60.993 15.6836 59.1833C14.1483 57.3737 13.1841 55.1495 12.9129 52.792C12.6416 50.4345 13.0755 48.0494 14.1596 45.9385C15.2438 43.8275 16.9295 42.0853 19.0037 40.9322C21.0779 39.7791 23.4474 39.2669 25.8127 39.4603C28.9847 39.7229 31.9229 41.2336 33.9819 43.6607C36.041 46.0878 37.0526 49.2328 36.7947 52.4051Z" fill="#ECF2FF"/>
<path d="M228.166 129.95C228.036 131.527 227.442 133.029 226.458 134.268C225.474 135.507 224.145 136.427 222.639 136.91C221.132 137.394 219.516 137.42 217.995 136.986C216.474 136.551 215.116 135.675 214.092 134.469C213.069 133.262 212.426 131.78 212.245 130.208C212.064 128.636 212.353 127.046 213.076 125.639C213.799 124.231 214.923 123.07 216.305 122.301C217.688 121.533 219.268 121.191 220.845 121.32C222.959 121.495 224.918 122.502 226.291 124.12C227.664 125.738 228.338 127.835 228.166 129.95Z" fill="#ECF2FF"/>
<path opacity="0.7" d="M52.9592 420.001H51.633C49.5171 419.855 47.4509 419.292 45.554 418.343C43.657 417.395 41.9668 416.08 40.5809 414.474C39.2177 412.874 38.1859 411.02 37.5456 409.018C36.9052 407.016 36.6691 404.906 36.8509 402.812C37.1084 399.716 38.2616 396.762 40.1698 394.311C42.0779 391.859 44.6585 390.016 47.5963 389.007C50.5342 387.997 53.7023 387.865 56.714 388.627C59.7257 389.388 62.4506 391.01 64.556 393.294C66.6615 395.579 68.0565 398.426 68.5707 401.49C69.0849 404.554 68.6961 407.702 67.4517 410.548C66.2073 413.395 64.1612 415.818 61.5631 417.521C58.9651 419.224 55.9274 420.134 52.8211 420.139L52.9592 420.001ZM52.9592 390.046C49.8168 390.061 46.7736 391.148 44.3318 393.126C41.89 395.104 40.1956 397.856 39.5281 400.927C38.8605 403.999 39.2598 407.205 40.6601 410.019C42.0604 412.833 44.3779 415.085 47.2302 416.404C50.0826 417.723 53.2993 418.03 56.3495 417.274C59.3998 416.518 62.1013 414.745 64.0083 412.247C65.9153 409.749 66.9137 406.675 66.8389 403.533C66.7641 400.391 65.6205 397.369 63.5968 394.964C62.4175 393.567 60.9726 392.417 59.3458 391.582C57.7189 390.747 55.9426 390.244 54.1197 390.101L52.9592 390.046Z" fill="#C6D7FF"/>
<path d="M310.591 585.085C310.397 587.45 309.505 589.705 308.029 591.563C306.554 593.421 304.56 594.801 302.3 595.526C300.041 596.252 297.617 596.291 295.335 595.639C293.053 594.987 291.016 593.673 289.48 591.864C287.945 590.054 286.981 587.83 286.71 585.472C286.438 583.115 286.872 580.73 287.956 578.619C289.041 576.508 290.726 574.766 292.8 573.612C294.875 572.459 297.244 571.947 299.609 572.141C302.782 572.403 305.72 573.914 307.779 576.341C309.838 578.768 310.849 581.913 310.591 585.085Z" fill="#C6D7FF"/>
</svg>
