<svg width="768" height="680" viewBox="0 0 768 680" fill="none" xmlns="http://www.w3.org/2000/svg">
<g clip-path="url(#clip0_115_1119)">
<path d="M7.95387 554.149C7.72667 556.908 6.68642 559.538 4.96465 561.706C3.24287 563.874 0.916893 565.483 -1.71926 566.33C-4.35541 567.176 -7.18336 567.222 -9.84554 566.461C-12.5077 565.701 -14.8846 564.168 -16.6758 562.057C-18.4669 559.946 -19.5918 557.351 -19.9082 554.6C-20.2247 551.85 -19.7185 549.067 -18.4537 546.604C-17.1889 544.142 -15.2222 542.109 -12.8023 540.764C-10.3824 539.419 -7.618 538.821 -4.8585 539.047C-1.15778 539.353 2.2701 541.115 4.67233 543.947C7.07457 546.779 8.2548 550.448 7.95387 554.149Z" fill="#C6D7FF"/>
<path d="M11.9703 244.739C11.8243 246.512 11.1556 248.203 10.0487 249.597C8.94184 250.991 7.44657 252.025 5.75191 252.569C4.05724 253.113 2.23927 253.143 0.527864 252.654C-1.18354 252.165 -2.71156 251.179 -3.86299 249.822C-5.01442 248.465 -5.73756 246.797 -5.94101 245.029C-6.14445 243.261 -5.81905 241.472 -5.00595 239.889C-4.19285 238.305 -2.92855 236.999 -1.37291 236.134C0.182732 235.269 1.95986 234.885 3.73382 235.03C6.11285 235.227 8.31649 236.36 9.86079 238.18C11.4051 240.001 12.1638 242.359 11.9703 244.739Z" fill="#ECF2FF"/>
<path opacity="0.7" d="M27.1573 398.87H25.9139C23.9303 398.734 21.9933 398.206 20.2149 397.317C18.4365 396.427 16.8519 395.194 15.5526 393.689C14.2746 392.189 13.3073 390.451 12.707 388.574C12.1067 386.697 11.8853 384.72 12.0557 382.756C12.2972 379.854 13.3783 377.084 15.1672 374.786C16.9561 372.488 19.3753 370.76 22.1296 369.814C24.8838 368.867 27.854 368.744 30.6774 369.457C33.5008 370.171 36.0554 371.692 38.0293 373.833C40.0032 375.975 41.311 378.645 41.7931 381.517C42.2752 384.389 41.9106 387.34 40.744 390.009C39.5774 392.678 37.6592 394.949 35.2235 396.545C32.7878 398.142 29.94 398.995 27.0278 399L27.1573 398.87ZM27.1573 370.788C24.2113 370.802 21.3583 371.821 19.0691 373.676C16.7799 375.53 15.1914 378.11 14.5656 380.989C13.9398 383.868 14.3141 386.875 15.6269 389.513C16.9396 392.15 19.1123 394.262 21.7863 395.498C24.4604 396.735 27.4761 397.023 30.3357 396.314C33.1953 395.606 35.728 393.943 37.5158 391.601C39.3036 389.259 40.2396 386.378 40.1695 383.432C40.0994 380.487 39.0272 377.653 37.13 375.399C36.0244 374.089 34.6698 373.011 33.1447 372.228C31.6195 371.446 29.9542 370.973 28.2452 370.839L27.1573 370.788Z" fill="#9EBBFF"/>
<path d="M377.954 231.149C377.727 233.908 376.686 236.538 374.965 238.706C373.243 240.874 370.917 242.483 368.281 243.33C365.645 244.176 362.817 244.222 360.154 243.461C357.492 242.701 355.115 241.168 353.324 239.057C351.533 236.946 350.408 234.351 350.092 231.6C349.775 228.85 350.281 226.067 351.546 223.604C352.811 221.142 354.778 219.109 357.198 217.764C359.618 216.419 362.382 215.821 365.141 216.047C368.842 216.353 372.27 218.115 374.672 220.947C377.075 223.779 378.255 227.448 377.954 231.149Z" fill="#ECF2FF"/>
<path opacity="0.7" d="M588.262 139.784H586.19C582.884 139.557 579.655 138.677 576.691 137.195C573.727 135.712 571.086 133.657 568.921 131.148C566.791 128.649 565.179 125.751 564.178 122.623C563.178 119.495 562.809 116.199 563.093 112.927C563.495 108.09 565.297 103.474 568.279 99.6432C571.26 95.8127 575.292 92.9331 579.883 91.3561C584.473 89.779 589.423 89.5727 594.129 90.7623C598.835 91.9519 603.092 94.486 606.382 98.0552C609.672 101.624 611.852 106.074 612.655 110.862C613.459 115.649 612.851 120.567 610.907 125.015C608.962 129.463 605.765 133.248 601.706 135.909C597.646 138.57 592.9 139.992 588.046 140L588.262 139.784ZM588.262 92.9792C583.352 93.0036 578.597 94.7014 574.782 97.7926C570.967 100.884 568.319 105.183 567.276 109.982C566.233 114.781 566.857 119.792 569.045 124.188C571.233 128.584 574.854 132.103 579.311 134.164C583.767 136.225 588.793 136.704 593.56 135.523C598.326 134.343 602.547 131.572 605.526 127.669C608.506 123.766 610.066 118.963 609.949 114.054C609.832 109.145 608.045 104.422 604.883 100.665C603.041 98.4811 600.783 96.6849 598.241 95.3804C595.699 94.0759 592.924 93.289 590.075 93.0655L588.262 92.9792Z" fill="#C6D7FF"/>
<path d="M612.954 350.149C612.727 352.908 611.686 355.538 609.965 357.706C608.243 359.874 605.917 361.483 603.281 362.33C600.645 363.176 597.817 363.222 595.154 362.461C592.492 361.701 590.115 360.168 588.324 358.057C586.533 355.946 585.408 353.351 585.092 350.6C584.775 347.85 585.281 345.067 586.546 342.604C587.811 340.142 589.778 338.109 592.198 336.764C594.618 335.419 597.382 334.821 600.141 335.047C603.842 335.353 607.27 337.115 609.672 339.947C612.075 342.779 613.255 346.448 612.954 350.149Z" fill="#C6D7FF"/>
<path opacity="0.7" d="M762.231 274.81H760.407C757.498 274.61 754.657 273.836 752.048 272.531C749.44 271.227 747.116 269.419 745.211 267.211C743.336 265.011 741.917 262.461 741.037 259.708C740.156 256.956 739.832 254.055 740.082 251.176C740.436 246.919 742.022 242.857 744.645 239.486C747.269 236.115 750.817 233.581 754.857 232.193C758.896 230.806 763.252 230.624 767.394 231.671C771.535 232.718 775.281 234.948 778.176 238.089C781.071 241.229 782.989 245.145 783.697 249.358C784.404 253.571 783.869 257.899 782.158 261.813C780.447 265.727 777.633 269.058 774.061 271.4C770.489 273.742 766.312 274.993 762.041 275L762.231 274.81ZM762.231 233.622C757.91 233.643 753.725 235.137 750.368 237.857C747.011 240.578 744.681 244.361 743.763 248.584C742.845 252.807 743.394 257.217 745.319 261.085C747.245 264.954 750.431 268.051 754.353 269.864C758.275 271.678 762.698 272.1 766.892 271.061C771.086 270.022 774.801 267.583 777.423 264.149C780.045 260.714 781.418 256.488 781.315 252.168C781.212 247.847 779.64 243.691 776.857 240.385C775.236 238.463 773.249 236.883 771.012 235.735C768.775 234.587 766.333 233.894 763.826 233.698L762.231 233.622Z" fill="#9EBBFF"/>
</g>
<defs>
<clipPath id="clip0_115_1119">
<rect width="768" height="680" fill="white"/>
</clipPath>
</defs>
</svg>
