<svg width="14" height="14" viewBox="0 0 14 14" fill="none" xmlns="http://www.w3.org/2000/svg">
  <path d="M5.39597 1.62667C5.45597 1.26533 5.76931 1 6.13597 1H7.86464C8.23131 1 8.54464 1.26533 8.60464 1.62667L8.74664 2.48067C8.78864 2.73 8.95531 2.938 9.17664 3.06067C9.22598 3.08733 9.27464 3.116 9.32331 3.14533C9.53931 3.276 9.80331 3.31667 10.04 3.228L10.8513 2.924C11.0176 2.86147 11.2006 2.85999 11.3679 2.91981C11.5352 2.97963 11.6757 3.09688 11.7646 3.25067L12.6286 4.74867C12.7173 4.90247 12.7486 5.08275 12.7169 5.25744C12.6851 5.43213 12.5924 5.5899 12.4553 5.70267L11.7866 6.254C11.5913 6.414 11.4946 6.66267 11.4993 6.91533C11.5004 6.972 11.5004 7.02867 11.4993 7.08533C11.4946 7.33733 11.5913 7.58533 11.786 7.74533L12.456 8.29733C12.7386 8.53067 12.812 8.93333 12.6293 9.25067L11.764 10.7487C11.6752 10.9024 11.5348 11.0197 11.3676 11.0796C11.2005 11.1396 11.0176 11.1383 10.8513 11.076L10.04 10.772C9.80331 10.6833 9.53997 10.724 9.32264 10.8547C9.27431 10.8841 9.22541 10.9125 9.17597 10.94C8.95531 11.062 8.78864 11.27 8.74664 11.5193L8.60464 12.3727C8.54464 12.7347 8.23131 13 7.86464 13H6.13531C5.76864 13 5.45531 12.7347 5.39531 12.3733L5.25331 11.5193C5.21197 11.27 5.04531 11.062 4.82397 10.9393C4.77454 10.9121 4.72564 10.8838 4.67731 10.8547C4.46064 10.724 4.19731 10.6833 3.95997 10.772L3.14864 11.076C2.98246 11.1383 2.79955 11.1397 2.63244 11.0799C2.46533 11.0201 2.32485 10.903 2.23597 10.7493L1.37131 9.25133C1.2826 9.09753 1.25134 8.91725 1.28308 8.74256C1.31482 8.56787 1.4075 8.4101 1.54464 8.29733L2.21397 7.746C2.40864 7.586 2.50531 7.33733 2.50064 7.08467C2.4996 7.028 2.4996 6.97133 2.50064 6.91467C2.50531 6.66267 2.40864 6.41467 2.21397 6.25467L1.54464 5.70267C1.40767 5.58993 1.31509 5.43229 1.28336 5.25775C1.25162 5.08321 1.28278 4.90307 1.37131 4.74933L2.23597 3.25133C2.32477 3.09742 2.46532 2.98004 2.63258 2.92009C2.79985 2.86014 2.98297 2.86153 3.14931 2.924L3.95997 3.228C4.19731 3.31667 4.46064 3.276 4.67731 3.14533C4.72531 3.116 4.77464 3.08733 4.82397 3.06C5.04531 2.938 5.21197 2.73 5.25331 2.48067L5.39597 1.62667Z" stroke="#407BFF" stroke-linecap="round" stroke-linejoin="round"/>
  <g>
    <svg width="6" height="6" viewBox="0 0 6 6" fill="none" xmlns="http://www.w3.org/2000/svg" x="4" y="4">
      <path d="M5 3C5 3.53043 4.78929 4.03914 4.41421 4.41421C4.03914 4.78929 3.53043 5 3 5C2.46957 5 1.96086 4.78929 1.58579 4.41421C1.21071 4.03914 1 3.53043 1 3C1 2.46957 1.21071 1.96086 1.58579 1.58579C1.96086 1.21071 2.46957 1 3 1C3.53043 1 4.03914 1.21071 4.41421 1.58579C4.78929 1.96086 5 2.46957 5 3Z" stroke="#407BFF" stroke-linecap="round" stroke-linejoin="round"/>
    </svg>
  </g>
</svg>